<?xml version="1.0" encoding="UTF-8"?><svg id="Camada_2" xmlns="http://www.w3.org/2000/svg" xmlns:xlink="http://www.w3.org/1999/xlink" viewBox="0 0 5336.63 1867.96"><defs><style>.cls-1{mask:url(#mask-1);}.cls-2{fill:url(#Gradiente_sem_nome_101);}.cls-3{mask:url(#mask);}.cls-4{fill:url(#Gradiente_sem_nome_101-2);}.cls-5{fill:url(#Gradiente_sem_nome_10-2);}.cls-6{clip-path:url(#clippath-1);}.cls-7{fill:#0033a0;fill-rule:evenodd;}.cls-8{clip-rule:evenodd;fill:none;}.cls-9{fill:url(#Gradiente_sem_nome_10);}.cls-10{clip-path:url(#clippath);}</style><clipPath id="clippath"><path class="cls-8" d="M1133.9,1344.52c-175.58-23.51-335.86-133.25-416.28-305.71-80.42-172.46-61.46-365.78,33.38-515.4,53.11-83.78,130.02-153.86,226.6-198.89,250.71-116.91,545.48-23.76,686,207.18.5.82,1.42.33,1.09-.43C1455.72,155.58,988.67,0,592.98,184.52,179.08,377.53,0,869.53,193.01,1283.43c125.46,269.04,445.26,385.44,714.3,259.99,96.57-45.04,173.48-115.11,226.59-198.9"/></clipPath><linearGradient id="Gradiente_sem_nome_10" x1="502.59" y1="857.75" x2="760.35" y2="1751.44" gradientTransform="translate(276.41 -392.39)" gradientUnits="userSpaceOnUse"><stop offset="0" stop-color="#fff"/><stop offset=".1" stop-color="#fafafa"/><stop offset=".23" stop-color="#ebebeb"/><stop offset=".36" stop-color="#d3d3d3"/><stop offset=".5" stop-color="#b1b1b1"/><stop offset=".65" stop-color="#868686"/><stop offset=".8" stop-color="#515151"/><stop offset=".95" stop-color="#141414"/><stop offset="1" stop-color="#000"/></linearGradient><mask id="mask" x="0" y="0" width="1665.02" height="1668.86" maskUnits="userSpaceOnUse"><rect class="cls-9" x="115.33" y="106.85" width="1549.43" height="1487.06"/></mask><linearGradient id="Gradiente_sem_nome_101" x1="730.13" y1="479.46" x2="987.89" y2="1373.15" gradientUnits="userSpaceOnUse"><stop offset="0" stop-color="#003da5"/><stop offset=".1" stop-color="#0440a6"/><stop offset=".23" stop-color="#134bab"/><stop offset=".36" stop-color="#2b5eb4"/><stop offset=".5" stop-color="#4c77bf"/><stop offset=".65" stop-color="#7898cf"/><stop offset=".8" stop-color="#acc0e1"/><stop offset=".95" stop-color="#e9eef6"/><stop offset="1" stop-color="#fefefe"/></linearGradient><clipPath id="clippath-1"><path class="cls-8" d="M750.98,523.44c175.57,23.51,335.85,133.25,416.28,305.71,80.42,172.47,61.46,365.78-33.39,515.4-53.11,83.79-130.02,153.86-226.6,198.89-250.71,116.91-545.48,23.76-686-207.19-.5-.82-1.42-.33-1.08.43,208.97,375.69,676.01,531.26,1071.71,346.75,413.9-193.01,592.98-685.01,399.97-1098.91-125.45-269.04-445.26-385.44-714.3-259.98-96.57,45.03-173.48,115.11-226.59,198.89"/></clipPath><linearGradient id="Gradiente_sem_nome_10-2" x1="823.26" y1="1785.07" x2="565.5" y2="891.39" gradientTransform="translate(282.59 -382.52)" xlink:href="#Gradiente_sem_nome_10"/><mask id="mask-1" x="219.85" y="199.1" width="1665.02" height="1668.86" maskUnits="userSpaceOnUse"><rect class="cls-5" x="220.11" y="274.06" width="1549.43" height="1487.05"/></mask><linearGradient id="Gradiente_sem_nome_101-2" x1="1154.73" y1="1388.53" x2="896.98" y2="494.68" xlink:href="#Gradiente_sem_nome_101"/></defs><g id="Camada_1-2"><path class="cls-7" d="M2371.84,1337.35c185.8,0,292.31-98.57,292.31-237.92s-108.77-193.74-270.78-229.99c-123.49-28.32-181.28-50.99-181.28-114.43,0-54.38,53.25-101.97,131.43-101.97s155.21,32.86,223.19,91.77l77.04-104.23c-78.18-66.84-171.07-108.76-294.57-108.76-164.28,0-279.85,99.7-279.85,235.66,0,146.16,112.17,192.61,273.05,229.99,124.63,29.46,180.14,50.98,180.14,115.57,0,55.51-49.84,103.09-146.15,103.09-101.96,0-184.67-40.79-256.05-105.36l-81.57,100.83c86.1,80.44,199.4,125.76,333.09,125.76M2999.23,1216.12c-83.84,0-145.02-56.65-162.02-137.09h441.85c0-216.4-105.36-353.48-286.63-353.48-166.55,0-297.97,129.16-297.97,304.77s138.22,308.17,305.9,308.17c84.97,0,186.94-36.25,237.92-90.64l-87.24-90.64c-32.86,33.99-97.44,58.92-151.81,58.92ZM2998.1,847.91c82.71,0,132.55,52.12,148.42,125.76h-308.17c20.39-77.04,82.71-125.76,159.75-125.76ZM3463.39,852.44v-113.29h-138.22v585.74h138.22v-295.7c0-111.03,83.84-185.81,209.6-185.81v-117.83c-96.31,0-172.21,48.72-209.6,126.89ZM4056.9,725.55c-87.24,0-157.48,39.65-203.93,106.5v-92.9h-138.22v780.61h138.22v-287.77c46.45,66.85,116.69,106.5,203.93,106.5,155.22,0,268.51-126.89,268.51-307.03s-113.29-305.9-268.51-305.9ZM4019.51,1220.65c-97.44,0-165.41-79.31-165.41-189.2s67.98-188.07,165.41-188.07,168.81,78.18,168.81,188.07-70.25,189.2-168.81,189.2ZM4505.99,852.44v-113.29h-138.22v585.74h138.22v-295.7c0-111.03,83.84-185.81,209.6-185.81v-117.83c-96.31,0-172.21,48.72-209.6,126.89ZM5022.8,1338.48c169.95,0,313.83-140.49,313.83-307.03s-143.88-305.9-313.83-305.9-313.82,139.35-313.82,305.9,143.88,307.03,313.82,307.03ZM5022.8,1220.65c-97.44,0-179.01-86.11-179.01-189.2s81.57-188.07,179.01-188.07,177.88,86.1,177.88,188.07-81.58,189.2-177.88,189.2Z"/><g class="cls-10"><g class="cls-3"><rect class="cls-2" y="0" width="1665.02" height="1668.86"/></g></g><g class="cls-6"><g class="cls-1"><rect class="cls-4" x="219.85" y="199.1" width="1665.02" height="1668.86"/></g></g></g></svg>